<svg width="360" height="220" viewBox="0 0 360 220" fill="none" xmlns="http://www.w3.org/2000/svg">
<g clip-path="url(#clip0_60_1806)">
<rect width="360" height="220" fill="#0F0920"/>
<path d="M339.132 0.0200195L338.044 27.7935H360V28.7935H338.005L336.942 55.9243H360V56.9243H336.903L335.876 83.1597H360V84.1597H335.837L334.779 111.163H360V112.163H334.74L333.674 139.397H360V140.397H333.635L332.548 168.151H360V169.151H332.509L331.493 195.087H360V196.087H331.454L330.517 220.02L329.518 219.981L330.453 196.087H302.84L301.902 220.02L300.902 219.981L301.838 196.087H274.225L273.287 220.02L272.288 219.981L273.224 196.087H245.61L244.673 220.02L243.673 219.981L244.608 196.087H216.995L216.058 220.02L215.059 219.981L215.994 196.087H188.381L187.443 220.02L186.443 219.981L187.379 196.087H159.766L158.828 220.02L157.829 219.981L158.765 196.087H131.151L130.214 220.02L129.214 219.981L130.149 196.087H102.536L101.599 220.02L100.6 219.981L101.535 196.087H73.9219L72.9844 220.02L71.9844 219.981L72.9199 196.087H45.3066L44.3691 220.02L43.3701 219.981L44.3057 196.087H16.6924L15.7549 220.02L14.7549 219.981L15.6904 196.087H0V195.087H15.7295L16.7451 169.151H0V168.151H16.7842L17.8711 140.397H0V139.397H17.9102L18.9766 112.163H0V111.163H19.0166L20.0732 84.1597H0V83.1597H20.1133L21.1406 56.9243H0V55.9243H21.1797L22.2422 28.7935H0V27.7935H22.2812L23.3701 -0.0200195L24.3691 0.0200195L23.2812 27.7935H50.8965L51.9854 -0.0200195L52.9844 0.0200195L51.8965 27.7935H79.5107L80.5996 -0.0200195L81.5986 0.0200195L80.5107 27.7935H108.126L109.215 -0.0200195L110.214 0.0200195L109.126 27.7935H136.74L137.829 -0.0200195L138.828 0.0200195L137.74 27.7935H165.355L166.444 -0.0200195L167.443 0.0200195L166.355 27.7935H193.97L195.059 -0.0200195L196.058 0.0200195L194.97 27.7935H222.585L223.674 -0.0200195L224.673 0.0200195L223.585 27.7935H251.199L252.288 -0.0200195L253.287 0.0200195L252.199 27.7935H279.814L280.903 -0.0200195L281.902 0.0200195L280.814 27.7935H308.429L309.518 -0.0200195L310.517 0.0200195L309.429 27.7935H337.044L338.133 -0.0200195L339.132 0.0200195ZM16.7314 195.087H44.3447L45.3604 169.151H17.7471L16.7314 195.087ZM45.3457 195.087H72.959L73.9746 169.151H46.3613L45.3457 195.087ZM73.9609 195.087H101.574L102.59 169.151H74.9766L73.9609 195.087ZM102.575 195.087H130.188L131.204 169.151H103.591L102.575 195.087ZM131.19 195.087H158.804L159.819 169.151H132.206L131.19 195.087ZM159.805 195.087H187.418L188.434 169.151H160.82L159.805 195.087ZM188.42 195.087H216.033L217.049 169.151H189.436L188.42 195.087ZM217.034 195.087H244.647L245.663 169.151H218.05L217.034 195.087ZM245.649 195.087H273.263L274.278 169.151H246.665L245.649 195.087ZM274.264 195.087H301.877L302.893 169.151H275.279L274.264 195.087ZM302.879 195.087H330.492L331.508 169.151H303.895L302.879 195.087ZM17.7861 168.151H45.3994L46.4863 140.397H18.873L17.7861 168.151ZM46.4004 168.151H74.0137L75.1006 140.397H47.4873L46.4004 168.151ZM75.0156 168.151H102.629L103.716 140.397H76.1025L75.0156 168.151ZM103.63 168.151H131.243L132.33 140.397H104.717L103.63 168.151ZM132.245 168.151H159.858L160.945 140.397H133.332L132.245 168.151ZM160.859 168.151H188.473L189.56 140.397H161.946L160.859 168.151ZM189.475 168.151H217.088L218.175 140.397H190.562L189.475 168.151ZM218.089 168.151H245.702L246.789 140.397H219.176L218.089 168.151ZM246.704 168.151H274.317L275.404 140.397H247.791L246.704 168.151ZM275.318 168.151H302.932L304.019 140.397H276.405L275.318 168.151ZM303.934 168.151H331.547L332.634 140.397H305.021L303.934 168.151ZM18.9121 139.397H46.5254L47.5918 112.163H19.9785L18.9121 139.397ZM47.5264 139.397H75.1396L76.2061 112.163H48.5928L47.5264 139.397ZM76.1416 139.397H103.755L104.821 112.163H77.208L76.1416 139.397ZM104.756 139.397H132.369L133.436 112.163H105.822L104.756 139.397ZM133.371 139.397H160.984L162.051 112.163H134.438L133.371 139.397ZM161.985 139.397H189.599L190.665 112.163H163.052L161.985 139.397ZM190.601 139.397H218.214L219.28 112.163H191.667L190.601 139.397ZM219.215 139.397H246.828L247.895 112.163H220.281L219.215 139.397ZM247.83 139.397H275.443L276.51 112.163H248.896L247.83 139.397ZM276.444 139.397H304.058L305.124 112.163H277.511L276.444 139.397ZM305.06 139.397H332.673L333.739 112.163H306.126L305.06 139.397ZM20.0176 111.163H47.6318L48.6885 84.1597H21.0742L20.0176 111.163ZM48.6318 111.163H76.2461L77.3027 84.1597H49.6895L48.6318 111.163ZM77.2471 111.163H104.861L105.918 84.1597H78.3037L77.2471 111.163ZM105.861 111.163H133.476L134.532 84.1597H106.919L105.861 111.163ZM134.477 111.163H162.091L163.147 84.1597H135.533L134.477 111.163ZM163.091 111.163H190.705L191.762 84.1597H164.148L163.091 111.163ZM191.706 111.163H219.32L220.377 84.1597H192.763L191.706 111.163ZM220.32 111.163H247.935L248.991 84.1597H221.378L220.32 111.163ZM248.936 111.163H276.55L277.606 84.1597H249.992L248.936 111.163ZM277.55 111.163H305.164L306.221 84.1597H278.607L277.55 111.163ZM306.165 111.163H333.779L334.836 84.1597H307.222L306.165 111.163ZM21.1133 83.1597H48.7285L49.7559 56.9243H22.1406L21.1133 83.1597ZM49.7285 83.1597H77.3428L78.3701 56.9243H50.7559L49.7285 83.1597ZM78.3428 83.1597H105.958L106.985 56.9243H79.3701L78.3428 83.1597ZM106.958 83.1597H134.572L135.6 56.9243H107.985L106.958 83.1597ZM135.572 83.1597H163.188L164.215 56.9243H136.6L135.572 83.1597ZM164.188 83.1597H191.802L192.829 56.9243H165.215L164.188 83.1597ZM192.802 83.1597H220.417L221.444 56.9243H193.829L192.802 83.1597ZM221.417 83.1597H249.031L250.059 56.9243H222.444L221.417 83.1597ZM250.031 83.1597H277.646L278.674 56.9243H251.059L250.031 83.1597ZM278.646 83.1597H306.261L307.288 56.9243H279.674L278.646 83.1597ZM307.261 83.1597H334.876L335.903 56.9243H308.288L307.261 83.1597ZM22.1797 55.9243H49.7949L50.8574 28.7935H23.2422L22.1797 55.9243ZM50.7949 55.9243H78.4092L79.4717 28.7935H51.8574L50.7949 55.9243ZM79.4092 55.9243H107.024L108.087 28.7935H80.4717L79.4092 55.9243ZM108.024 55.9243H135.639L136.701 28.7935H109.087L108.024 55.9243ZM136.639 55.9243H164.254L165.316 28.7935H137.701L136.639 55.9243ZM165.254 55.9243H192.868L193.931 28.7935H166.316L165.254 55.9243ZM193.868 55.9243H221.483L222.546 28.7935H194.931L193.868 55.9243ZM222.483 55.9243H250.098L251.16 28.7935H223.546L222.483 55.9243ZM251.098 55.9243H278.713L279.775 28.7935H252.16L251.098 55.9243ZM279.713 55.9243H307.327L308.39 28.7935H280.775L279.713 55.9243ZM308.327 55.9243H335.942L337.005 28.7935H309.39L308.327 55.9243Z" fill="white" fill-opacity="0.1"/>
<path d="M44.8831 217.884C45.4353 217.884 45.8831 218.331 45.8831 218.884C45.883 219.436 45.4353 219.884 44.8831 219.884C44.331 219.884 43.8831 219.436 43.8831 218.884C43.8831 218.332 44.331 217.884 44.8831 217.884ZM68.5579 211.622C69.11 211.622 69.5576 212.07 69.5579 212.622C69.5579 213.174 69.1101 213.622 68.5579 213.622C68.0057 213.622 67.5579 213.174 67.5579 212.622C67.5581 212.07 68.0059 211.622 68.5579 211.622ZM154.751 201.881C155.303 201.881 155.751 202.329 155.751 202.881C155.751 203.433 155.303 203.881 154.751 203.881C154.199 203.881 153.751 203.433 153.751 202.881C153.751 202.329 154.199 201.881 154.751 201.881ZM219.554 199.327C220.106 199.327 220.554 199.775 220.554 200.327C220.554 200.879 220.106 201.327 219.554 201.327C219.002 201.327 218.554 200.879 218.554 200.327C218.554 199.775 219.002 199.327 219.554 199.327ZM243.229 193.014C243.781 193.014 244.229 193.462 244.229 194.014C244.229 194.566 243.781 195.014 243.229 195.014C242.676 195.014 242.229 194.566 242.229 194.014C242.229 193.461 242.677 193.014 243.229 193.014ZM363.606 192.367C364.158 192.367 364.606 192.815 364.606 193.367C364.606 193.919 364.158 194.367 363.606 194.367C363.054 194.367 362.606 193.919 362.606 193.367C362.606 192.815 363.054 192.367 363.606 192.367ZM122.076 187.405C122.629 187.405 123.076 187.853 123.076 188.405C123.076 188.957 122.629 189.405 122.076 189.405C121.524 189.405 121.077 188.957 121.076 188.405C121.076 187.853 121.524 187.405 122.076 187.405ZM74.5588 181.478C75.111 181.478 75.5588 181.925 75.5588 182.478C75.5587 183.03 75.1109 183.477 74.5588 183.478C74.0066 183.478 73.559 183.03 73.5588 182.478C73.5588 181.925 74.0066 181.478 74.5588 181.478ZM-35.322 181.13C-34.7698 181.13 -34.3221 181.578 -34.322 182.13C-34.322 182.682 -34.7697 183.13 -35.322 183.13C-35.8743 183.13 -36.322 182.682 -36.322 182.13C-36.3219 181.578 -35.8742 181.13 -35.322 181.13ZM26.342 177.993C26.8943 177.993 27.342 178.441 27.342 178.993C27.3419 179.545 26.8942 179.993 26.342 179.993C25.7898 179.993 25.3422 179.545 25.342 178.993C25.342 178.441 25.7898 177.993 26.342 177.993ZM4.01294 171.718C4.56519 171.718 5.01294 172.166 5.01294 172.718C5.01293 173.27 4.56518 173.718 4.01294 173.718C3.46066 173.718 3.01295 173.27 3.01294 172.718C3.01294 172.165 3.46066 171.718 4.01294 171.718ZM367.864 159.53C368.415 159.531 368.863 159.978 368.864 160.53C368.864 161.082 368.416 161.53 367.864 161.53C367.311 161.53 366.864 161.083 366.864 160.53C366.864 159.978 367.311 159.53 367.864 159.53ZM210.441 153.255C210.993 153.255 211.44 153.703 211.441 154.255C211.441 154.807 210.993 155.255 210.441 155.255C209.888 155.255 209.441 154.807 209.441 154.255C209.441 153.703 209.889 153.255 210.441 153.255ZM-1.98706 150.118C-1.43494 150.118 -0.987183 150.566 -0.987061 151.118C-0.987061 151.67 -1.43487 152.118 -1.98706 152.118C-2.53934 152.118 -2.98706 151.67 -2.98706 151.118C-2.98694 150.566 -2.53927 150.118 -1.98706 150.118ZM272.129 150.118C272.681 150.118 273.129 150.566 273.129 151.118C273.129 151.67 272.681 152.118 272.129 152.118C271.577 152.118 271.129 151.67 271.129 151.118C271.129 150.566 271.577 150.118 272.129 150.118ZM249.8 143.843C250.352 143.843 250.8 144.291 250.8 144.843C250.8 145.395 250.352 145.843 249.8 145.843C249.248 145.843 248.8 145.395 248.8 144.843C248.8 144.291 249.248 143.843 249.8 143.843ZM350.643 126.388C351.195 126.388 351.643 126.835 351.643 127.388C351.643 127.94 351.195 128.388 350.643 128.388C350.091 128.388 349.643 127.94 349.643 127.388C349.643 126.835 350.091 126.388 350.643 126.388ZM90.6477 124.542C91.1998 124.542 91.6477 124.99 91.6477 125.542C91.6475 126.094 91.1997 126.542 90.6477 126.542C90.0956 126.542 89.648 126.094 89.6477 125.542C89.6477 124.99 90.0954 124.542 90.6477 124.542ZM243.8 122.244C244.352 122.244 244.8 122.692 244.8 123.244C244.8 123.796 244.352 124.244 243.8 124.244C243.248 124.244 242.8 123.796 242.8 123.244C242.8 122.692 243.248 122.244 243.8 122.244ZM46.1672 121.404C46.7194 121.404 47.1671 121.852 47.1672 122.404C47.1672 122.957 46.7194 123.404 46.1672 123.404C45.615 123.404 45.1672 122.957 45.1672 122.404C45.1674 121.852 45.615 121.404 46.1672 121.404ZM181.545 114.281C182.097 114.281 182.545 114.729 182.545 115.281C182.545 115.833 182.097 116.281 181.545 116.281C180.993 116.281 180.545 115.833 180.545 115.281C180.545 114.729 180.993 114.281 181.545 114.281ZM24.1213 108.006C24.6736 108.006 25.1213 108.454 25.1213 109.006C25.1211 109.558 24.6735 110.006 24.1213 110.006C23.5694 110.006 23.1216 109.558 23.1213 109.006C23.1213 108.454 23.5692 108.006 24.1213 108.006ZM136.185 108.006C136.737 108.006 137.185 108.454 137.185 109.006C137.185 109.558 136.737 110.006 136.185 110.006C135.633 110.006 135.185 109.558 135.185 109.006C135.185 108.454 135.633 108.006 136.185 108.006ZM336.435 96.667C336.987 96.6672 337.435 97.115 337.435 97.667C337.435 98.2192 336.987 98.6668 336.435 98.667C335.883 98.667 335.435 98.2193 335.435 97.667C335.435 97.1148 335.883 96.667 336.435 96.667ZM291.954 93.5303C292.507 93.5304 292.954 93.9781 292.954 94.5303C292.954 95.0823 292.506 95.5302 291.954 95.5303C291.402 95.5303 290.955 95.0823 290.954 94.5303C290.954 93.978 291.402 93.5303 291.954 93.5303ZM-8.55249 93.5293C-8.00047 93.5295 -7.55263 93.9773 -7.55249 94.5293C-7.55249 95.0815 -8.00038 95.5291 -8.55249 95.5293C-9.10477 95.5293 -9.55249 95.0816 -9.55249 94.5293C-9.55235 93.9771 -9.10469 93.5293 -8.55249 93.5293ZM365.644 89.5439C366.196 89.5441 366.644 89.9918 366.644 90.5439C366.644 91.096 366.196 91.5438 365.644 91.5439C365.092 91.5439 364.644 91.0961 364.644 90.5439C364.644 89.9917 365.092 89.5439 365.644 89.5439ZM130.186 86.4062C130.738 86.4065 131.186 86.8541 131.186 87.4062C131.186 87.9584 130.738 88.406 130.186 88.4062C129.633 88.4062 129.186 87.9585 129.186 87.4062C129.186 86.854 129.634 86.4062 130.186 86.4062ZM107.856 80.1318C108.408 80.1318 108.856 80.5796 108.856 81.1318C108.855 81.6839 108.408 82.1318 107.856 82.1318C107.304 82.1316 106.856 81.6838 106.856 81.1318C106.856 80.5797 107.304 80.1321 107.856 80.1318ZM269.909 80.1318C270.462 80.1318 270.909 80.5796 270.909 81.1318C270.909 81.6839 270.462 82.1318 269.909 82.1318C269.357 82.1318 268.91 81.6839 268.909 81.1318C268.909 80.5796 269.357 80.1319 269.909 80.1318ZM237.235 65.6553C237.787 65.6553 238.235 66.103 238.235 66.6553C238.235 67.2076 237.787 67.6553 237.235 67.6553C236.682 67.6552 236.235 67.2075 236.235 66.6553C236.235 66.103 236.682 65.6553 237.235 65.6553ZM-2.55347 63.3848C-2.00127 63.3848 -1.55361 63.8326 -1.55347 64.3848C-1.55347 64.937 -2.00118 65.3848 -2.55347 65.3848C-3.10554 65.3845 -3.55347 64.9369 -3.55347 64.3848C-3.55333 63.8328 -3.10545 63.385 -2.55347 63.3848ZM61.3665 60.8242C61.9187 60.8242 62.3665 61.2719 62.3665 61.8242C62.3663 62.3764 61.9187 62.8242 61.3665 62.8242C60.8144 62.824 60.3666 62.3763 60.3665 61.8242C60.3665 61.2721 60.8143 60.8244 61.3665 60.8242ZM21.1223 57.1094C21.6745 57.1094 22.1222 57.5572 22.1223 58.1094C22.1223 58.6616 21.6746 59.1093 21.1223 59.1094C20.57 59.1094 20.1223 58.6617 20.1223 58.1094C20.1225 57.5572 20.5701 57.1094 21.1223 57.1094ZM295.94 43.7109C296.492 43.711 296.94 44.1588 296.94 44.7109C296.94 45.2632 296.492 45.7109 295.94 45.7109C295.387 45.7109 294.94 45.2632 294.94 44.7109C294.94 44.1588 295.388 43.7109 295.94 43.7109ZM122.857 36.1572C123.409 36.1574 123.857 36.6051 123.857 37.1572C123.857 37.7093 123.409 38.157 122.857 38.1572C122.304 38.1572 121.857 37.7094 121.857 37.1572C121.857 36.6049 122.304 36.1572 122.857 36.1572ZM243.235 35.5107C243.787 35.5107 244.235 35.9585 244.235 36.5107C244.234 37.0629 243.787 37.5107 243.235 37.5107C242.683 37.5106 242.235 37.0628 242.235 36.5107C242.235 35.9585 242.682 35.5109 243.235 35.5107ZM181.095 33.0195C181.647 33.0195 182.095 33.4673 182.095 34.0195C182.095 34.5718 181.647 35.0195 181.095 35.0195C180.543 35.0193 180.095 34.5717 180.095 34.0195C180.095 33.4674 180.543 33.0198 181.095 33.0195ZM375.322 10.0088C375.874 10.0089 376.322 10.4566 376.322 11.0088C376.322 11.561 375.874 12.0086 375.322 12.0088C374.769 12.0088 374.322 11.5611 374.322 11.0088C374.322 10.4565 374.769 10.0088 375.322 10.0088ZM108.648 6.4375C109.2 6.43763 109.648 6.8853 109.648 7.4375C109.648 7.9896 109.2 8.43737 108.648 8.4375C108.096 8.4375 107.648 7.98968 107.648 7.4375C107.648 6.88522 108.095 6.4375 108.648 6.4375ZM329.986 3.7334C330.538 3.73343 330.985 4.18125 330.986 4.7334C330.986 5.28566 330.538 5.73337 329.986 5.7334C329.433 5.7334 328.986 5.28568 328.986 4.7334C328.986 4.18123 329.433 3.7334 329.986 3.7334ZM64.1672 3.2998C64.7195 3.2998 65.1672 3.74752 65.1672 4.2998C65.1671 4.85198 64.7194 5.2998 64.1672 5.2998C63.6151 5.2997 63.1674 4.85192 63.1672 4.2998C63.1672 3.74758 63.615 3.29991 64.1672 3.2998ZM195.305 3.2998C195.857 3.30001 196.305 3.74765 196.305 4.2998C196.305 4.85186 195.857 5.2996 195.305 5.2998C194.753 5.2998 194.305 4.85198 194.305 4.2998C194.305 3.74752 194.753 3.2998 195.305 3.2998ZM239.784 0.135742C240.337 0.135792 240.784 0.583497 240.784 1.13574C240.784 1.688 240.337 2.13569 239.784 2.13574C239.232 2.13574 238.784 1.68803 238.784 1.13574C238.784 0.583467 239.232 0.135742 239.784 0.135742Z" fill="white" fill-opacity="0.1"/>
<g filter="url(#filter0_f_60_1806)">
<path d="M38.6794 163.86L314.332 312.146L407.232 -4.18073L251.429 -87.9942L38.6794 163.86Z" fill="white" fill-opacity="0.1"/>
</g>
</g>
<defs>
<filter id="filter0_f_60_1806" x="-25.0538" y="-151.727" width="496.019" height="527.607" filterUnits="userSpaceOnUse" color-interpolation-filters="sRGB">
<feFlood flood-opacity="0" result="BackgroundImageFix"/>
<feBlend mode="normal" in="SourceGraphic" in2="BackgroundImageFix" result="shape"/>
<feGaussianBlur stdDeviation="31.8666" result="effect1_foregroundBlur_60_1806"/>
</filter>
<clipPath id="clip0_60_1806">
<rect width="360" height="220" fill="white"/>
</clipPath>
</defs>
</svg>
